<?xml version="1.0" standalone="no"?>
<!DOCTYPE svg PUBLIC "-//W3C//DTD SVG 20010904//EN"
 "http://www.w3.org/TR/2001/REC-SVG-20010904/DTD/svg10.dtd">
<svg version="1.0" xmlns="http://www.w3.org/2000/svg"
 width="329.000000pt" height="329.000000pt" viewBox="0 0 329.000000 329.000000"
 preserveAspectRatio="xMidYMid meet">
<metadata>
Created by potrace 1.11, written by Peter Selinger 2001-2013
</metadata>
<g transform="translate(0.000000,329.000000) scale(0.100000,-0.100000)"
fill="#000000" stroke="none">
<path d="M517 3173 c-8 -10 -19 -30 -22 -45 -6 -22 -1 -33 23 -58 l30 -30 441
0 441 0 0 -1043 c0 -982 1 -1045 18 -1060 9 -8 29 -19 44 -22 22 -6 33 -1 58
23 l30 30 0 1036 0 1036 60 0 60 0 0 -1043 c0 -982 1 -1045 18 -1060 9 -8 29
-19 44 -22 22 -6 33 -1 58 23 l30 30 0 1036 0 1036 439 0 438 0 27 26 c31 32
33 62 5 98 l-20 26 -1103 0 c-1038 0 -1104 -1 -1119 -17z"/>
<path d="M617 2833 c-3 -5 -17 -43 -31 -84 -13 -41 -43 -119 -66 -174 -23 -55
-61 -152 -84 -215 -24 -63 -55 -140 -68 -170 -14 -30 -31 -71 -38 -90 -8 -19
-60 -140 -117 -269 -57 -128 -103 -235 -103 -238 0 -2 19 -3 42 -1 l43 3 49
125 c26 69 54 139 61 155 8 17 36 84 63 150 41 100 143 332 228 523 10 23 21
42 25 42 8 0 21 -28 80 -175 29 -71 56 -132 59 -135 4 -3 22 -45 40 -95 18
-49 36 -95 41 -101 5 -6 6 -14 2 -17 -3 -4 -1 -7 5 -7 7 0 12 -6 12 -14 0 -7
14 -40 31 -72 18 -32 47 -102 66 -154 18 -52 37 -104 42 -115 5 -11 15 -36 22
-55 7 -19 17 -41 22 -47 9 -12 87 -19 87 -8 0 10 -73 181 -82 193 -6 6 -7 12
-4 12 4 0 1 10 -6 23 -7 12 -13 24 -13 27 0 3 -6 15 -13 26 -6 12 -8 24 -5 28
3 3 1 6 -5 6 -7 0 -12 7 -12 15 0 8 -4 23 -10 33 -34 61 -81 171 -104 243 -15
46 -31 93 -36 104 -12 28 -43 99 -45 105 -1 3 -5 14 -10 25 -16 40 -147 371
-154 389 -4 11 -10 15 -14 9z"/>
<path d="M2651 2809 c-5 -13 -16 -42 -24 -64 -9 -22 -38 -96 -66 -165 -28 -69
-68 -172 -89 -230 -22 -58 -49 -125 -60 -150 -11 -25 -36 -83 -55 -130 -50
-122 -171 -399 -190 -437 -9 -18 -17 -35 -17 -38 0 -3 19 -5 42 -3 l43 3 49
125 c26 69 54 139 61 155 8 17 36 84 63 150 72 173 239 555 246 562 11 11 24
-10 56 -92 35 -88 96 -230 111 -257 5 -10 9 -23 9 -29 0 -12 73 -178 114 -259
13 -25 36 -80 51 -123 15 -42 42 -112 60 -155 l32 -77 43 -3 c32 -3 41 0 37
10 -3 7 -44 103 -90 213 -46 110 -94 220 -106 245 -13 25 -36 81 -51 125 -50
141 -61 168 -82 214 -11 25 -38 91 -59 146 -40 106 -109 277 -115 284 -2 2 -7
-7 -13 -20z"/>
<path d="M520 1528 c-107 -4 -260 -5 -340 -2 -137 6 -146 5 -164 -14 -14 -17
-16 -27 -9 -49 l10 -28 269 -3 c225 -2 402 -1 689 1 22 0 85 -1 139 -3 87 -3
101 -1 113 15 18 26 16 52 -4 73 -16 15 -32 16 -131 11 -62 -3 -173 -3 -245 0
-73 3 -220 3 -327 -1z"/>
<path d="M2054 1505 c-19 -29 -7 -63 25 -68 14 -3 284 -5 600 -6 533 -1 575 1
587 17 18 23 17 47 -1 66 -14 14 -86 15 -607 13 -583 -1 -591 -2 -604 -22z"/>
<path d="M142 1325 c11 -27 23 -57 26 -65 3 -8 11 -21 19 -30 7 -8 26 -34 42
-57 57 -79 211 -181 307 -204 65 -15 157 -12 200 6 19 8 35 14 37 13 10 -5 56
20 84 46 19 17 42 36 52 41 71 42 139 125 179 222 37 87 36 87 -70 79 -51 -4
-104 -7 -118 -6 -14 1 -194 2 -401 3 l-377 2 20 -50z"/>
<path d="M2175 1350 c4 -14 17 -47 31 -75 58 -119 141 -199 280 -270 68 -35
84 -39 162 -42 143 -4 228 36 370 175 35 34 60 62 56 62 -4 0 0 8 8 18 18 21
54 99 64 137 l7 28 -94 -7 c-52 -4 -105 -7 -119 -6 -14 1 -193 2 -398 3 l-373
2 6 -25z"/>
<path d="M1587 784 c-2 -3 -72 -5 -155 -5 -165 0 -183 -6 -197 -62 -18 -69 47
-122 115 -94 15 6 89 3 195 -9 33 -4 85 -7 115 -6 30 0 75 1 99 1 25 1 48 6
52 13 6 10 16 10 44 -1 103 -37 186 63 113 136 -26 26 -82 34 -110 17 -20 -13
-42 -14 -49 -3 -6 11 -212 22 -222 13z"/>
<path d="M943 538 c-39 -10 -73 -51 -73 -87 1 -30 31 -71 54 -71 8 0 18 -5 21
-10 4 -6 11 -7 17 -4 25 16 285 21 463 10 92 -6 514 -8 550 -3 11 2 28 7 38
11 9 5 30 5 45 1 15 -4 54 -9 87 -11 34 -1 65 -3 70 -4 6 -2 27 -2 48 -1 49 1
97 47 92 87 -3 33 -35 76 -60 81 -32 7 -206 3 -219 -4 -18 -12 -70 -12 -85 0
-17 14 -627 13 -644 -1 -13 -10 -225 -11 -242 -1 -5 3 -34 7 -64 8 -29 1 -56
3 -60 5 -3 2 -20 -1 -38 -6z"/>
<path d="M1807 294 c-3 -3 -136 -7 -296 -7 -160 -1 -291 -5 -291 -9 0 -7 -369
-4 -590 5 -96 4 -131 2 -152 -9 -53 -27 -63 -85 -24 -131 22 -25 30 -28 83
-26 32 1 261 1 508 1 545 -1 1066 -1 1235 0 69 1 197 0 285 -2 200 -4 220 4
231 86 2 19 -5 35 -26 56 l-29 29 -183 -3 c-101 -2 -218 -5 -260 -8 -43 -3
-78 -2 -78 3 0 4 -87 8 -193 8 -106 0 -198 2 -204 6 -6 4 -13 4 -16 1z"/>
</g>
</svg>
